<?xml version="1.0" standalone="no"?>
<!DOCTYPE svg PUBLIC "-//W3C//DTD SVG 20010904//EN"
 "http://www.w3.org/TR/2001/REC-SVG-20010904/DTD/svg10.dtd">
<svg version="1.0" xmlns="http://www.w3.org/2000/svg"
 width="1000.000000pt" height="1000.000000pt" viewBox="0 0 1000.000000 1000.000000"
 preserveAspectRatio="xMidYMid meet">
<metadata>
Created by potrace 1.14, written by Peter Selinger 2001-2017
</metadata>
<g transform="translate(0.000000,1000.000000) scale(0.100000,-0.100000)"
fill="#000000" stroke="none">
<path d="M4615 9493 c-1028 -89 -1978 -537 -2730 -1288 -582 -581 -959 -1242
-1149 -2016 -126 -515 -159 -1114 -90 -1654 52 -411 187 -912 349 -1295 173
-411 420 -814 691 -1125 111 -128 360 -375 489 -485 706 -602 1533 -935 2530
-1020 176 -15 549 -12 727 5 981 94 1924 542 2662 1265 370 362 631 718 852
1159 258 519 387 956 451 1531 24 218 24 744 0 960 -93 833 -378 1580 -830
2174 -293 385 -744 801 -1182 1091 -675 446 -1366 664 -2172 682 l-243 6 0
-827 0 -827 -62 -28 c-98 -44 -190 -62 -423 -81 -206 -18 -520 -119 -745 -242
-623 -340 -1138 -978 -1314 -1628 -21 -78 -66 -413 -66 -492 0 -16 10 -18 80
-18 74 0 80 1 84 23 3 12 15 73 26 136 70 381 282 830 547 1161 159 198 375
398 577 533 177 119 309 177 601 263 306 90 373 103 521 104 106 0 113 -1 127
-23 13 -20 14 -126 9 -879 l-5 -856 -41 -12 c-172 -51 -382 -213 -469 -361
-68 -115 -82 -180 -82 -374 0 -152 2 -177 23 -238 43 -122 141 -248 250 -320
37 -25 137 -81 223 -126 l156 -81 7 -118 c7 -126 -3 -207 -32 -242 -16 -19
-20 -19 -99 -5 -236 42 -467 155 -626 304 -91 86 -157 175 -221 301 -90 176
-123 299 -133 486 -13 254 51 498 183 689 24 36 44 67 44 70 0 3 12 24 27 46
18 28 63 64 142 116 189 123 241 185 241 283 0 49 -1 51 -22 44 -49 -15 -197
-95 -266 -144 -258 -182 -467 -527 -515 -852 l-11 -77 -42 -10 c-119 -30 -395
-20 -421 16 -19 25 -16 157 7 251 38 160 135 384 233 541 130 208 326 426 507
562 115 87 294 183 409 220 40 13 76 30 81 39 4 8 11 44 15 79 l7 64 -38 -7
c-22 -4 -85 -23 -140 -41 -477 -158 -946 -602 -1124 -1063 -45 -116 -91 -283
-115 -417 -22 -121 -31 -433 -16 -566 72 -629 377 -1135 883 -1463 224 -146
538 -255 811 -282 l67 -7 0 76 c0 72 -2 77 -22 81 -13 2 -66 11 -119 20 -370
60 -792 314 -1059 636 -121 147 -254 379 -285 501 -9 35 -32 102 -50 149 -84
217 -88 329 -12 399 25 23 29 23 184 20 137 -4 163 -7 193 -25 53 -31 76 -72
83 -151 10 -107 44 -219 101 -338 64 -132 127 -222 231 -333 185 -197 414
-322 669 -367 116 -20 399 -20 521 0 382 62 665 249 855 564 75 125 143 306
165 439 l7 43 -34 -21 c-21 -13 -50 -20 -81 -20 -30 0 -49 -5 -51 -12 -73
-275 -187 -441 -422 -615 -133 -98 -326 -189 -472 -222 l-44 -9 -21 46 c-17
39 -20 62 -17 132 2 47 4 115 4 152 l0 66 56 27 c103 50 225 139 315 230 76
75 99 106 138 185 58 117 71 181 64 330 -5 126 -27 211 -79 315 -51 100 -81
136 -207 244 l-121 105 0 87 c0 82 16 184 42 270 l11 37 66 -23 c189 -64 378
-205 516 -385 70 -90 150 -254 170 -347 10 -43 19 -84 21 -90 2 -9 27 -13 80
-13 l77 0 -6 68 c-14 145 -72 306 -157 433 -55 82 -212 237 -318 314 -106 77
-246 157 -345 198 -68 27 -82 38 -103 73 -40 68 -51 176 -31 314 9 62 22 120
29 127 26 26 269 -42 416 -116 485 -244 881 -770 1004 -1332 19 -89 22 -133
22 -314 0 -239 -13 -324 -85 -540 -154 -461 -456 -808 -899 -1030 -165 -83
-227 -109 -395 -166 l-140 -47 -3 -71 c-3 -83 -10 -80 119 -55 575 107 1099
507 1369 1044 83 166 107 246 147 487 l36 225 64 30 c70 33 127 38 312 26 l95
-6 25 -49 c22 -42 26 -61 26 -143 0 -99 -29 -228 -106 -469 -118 -369 -379
-762 -713 -1069 -461 -426 -959 -633 -1562 -649 -226 -6 -362 4 -554 43 -508
102 -906 321 -1299 714 -197 197 -319 367 -436 605 -116 236 -191 460 -242
725 -14 74 -27 141 -29 148 -2 8 -30 12 -94 12 -106 0 -99 12 -75 -151 24
-156 53 -281 102 -434 140 -434 371 -812 693 -1135 243 -244 447 -379 775
-513 326 -133 571 -196 870 -221 l140 -11 25 -60 c21 -51 24 -76 24 -165 0
-108 -21 -280 -33 -280 -4 0 -67 -5 -141 -11 -372 -30 -735 53 -1150 261 -860
431 -1500 1175 -1749 2033 -90 308 -121 522 -128 872 -7 359 22 647 93 930
248 990 1113 1902 2142 2259 56 19 111 40 123 46 11 6 85 18 164 25 156 15
181 23 195 61 16 42 12 114 -6 121 -21 8 -216 -20 -362 -53 -621 -138 -1250
-527 -1705 -1053 -317 -368 -564 -802 -637 -1121 -17 -74 -50 -211 -75 -305
-54 -209 -100 -444 -116 -592 l-13 -111 -55 -11 c-109 -21 -247 -33 -301 -27
-53 6 -135 39 -173 67 -16 13 -17 25 -7 179 57 865 368 1644 911 2275 372 434
897 823 1423 1055 282 125 660 233 956 275 176 25 160 17 160 81 l0 57 -82 -7
c-116 -10 -351 -51 -494 -85 -359 -88 -751 -252 -1090 -457 -301 -181 -501
-339 -765 -603 -787 -789 -1179 -1752 -1179 -2901 0 -510 72 -956 230 -1430
193 -581 473 -1048 886 -1479 652 -681 1402 -1095 2238 -1236 157 -27 422 -55
513 -55 l53 0 0 79 0 79 -87 6 c-420 30 -725 97 -1083 238 -393 156 -774 383
-1117 665 -146 121 -421 393 -538 532 -344 410 -598 855 -743 1302 -95 291
-165 650 -187 954 -3 44 -8 108 -11 142 l-5 61 53 20 c78 29 150 35 279 23
196 -20 184 -15 208 -78 12 -31 21 -78 21 -108 0 -29 5 -99 10 -156 72 -725
405 -1422 945 -1978 413 -425 807 -681 1315 -856 378 -129 684 -178 1110 -179
520 0 963 89 1408 285 516 226 914 552 1291 1056 360 481 593 1032 683 1607
22 145 22 148 3 162 -11 8 -43 14 -77 14 -66 0 -57 16 -83 -145 -25 -154 -89
-405 -144 -565 -321 -941 -935 -1606 -1836 -1990 -290 -124 -742 -240 -1020
-262 -39 -3 -39 -2 -59 47 -17 41 -20 72 -20 170 0 66 6 159 13 206 l13 87 66
30 c85 38 132 49 262 61 132 13 219 31 340 72 373 125 752 370 1076 693 283
284 491 592 618 918 172 439 212 1028 106 1523 -86 398 -274 790 -536 1115
-92 115 -288 315 -404 412 -271 228 -529 356 -1079 538 l-234 78 -21 38 c-23
45 -24 83 -11 311 11 204 7 199 165 172 508 -87 1006 -316 1445 -667 497 -397
921 -958 1048 -1387 20 -66 59 -186 87 -265 103 -288 117 -349 126 -532 5 -95
10 -126 22 -135 9 -8 45 -13 85 -13 l70 0 -7 103 c-17 248 -82 557 -170 798
-310 854 -957 1582 -1765 1985 -242 121 -393 170 -701 228 -74 13 -185 37
-247 51 l-111 26 -16 39 c-29 72 -38 168 -30 327 l7 153 32 24 32 25 112 -15
c495 -65 944 -226 1411 -506 547 -329 1007 -768 1365 -1303 391 -585 599
-1172 656 -1854 15 -177 7 -543 -16 -731 -112 -922 -512 -1748 -1164 -2401
-662 -662 -1452 -1048 -2361 -1154 -130 -15 -140 -22 -140 -92 l0 -43 73 0
c95 0 324 25 467 50 580 104 1178 381 1680 778 739 585 1278 1394 1475 2215
146 609 160 1292 40 1919 -114 592 -320 1080 -635 1508 -561 761 -1335 1332
-2135 1575 -305 93 -727 165 -966 165 -56 0 -57 0 -63 -32 -3 -18 -9 -285 -12
-593 -6 -591 4 -961 26 -975 6 -4 41 -10 77 -14 89 -9 235 -40 361 -77 653
-190 1252 -674 1546 -1249 166 -324 242 -595 281 -996 l6 -61 -34 -16 c-60
-29 -120 -37 -289 -37 l-167 0 -20 53 c-11 30 -40 157 -65 284 -50 255 -79
344 -167 513 -251 484 -784 893 -1348 1034 -53 14 -117 28 -142 31 l-46 7 -7
-174 c-3 -95 -8 -418 -11 -718 l-5 -545 90 -65 c111 -79 199 -170 234 -242 15
-30 31 -89 38 -135 22 -153 -17 -293 -118 -420 -27 -34 -61 -77 -77 -97 -43
-55 -100 -82 -233 -110 -130 -27 -187 -25 -285 9 -110 39 -229 141 -310 264
-62 94 -79 151 -79 267 0 176 32 257 148 377 101 103 145 129 303 181 l134 43
3 751 2 750 38 24 c59 37 143 30 337 -26 88 -26 196 -59 240 -75 356 -129 677
-332 920 -582 146 -151 228 -265 305 -424 82 -167 200 -538 245 -767 5 -27 7
-28 77 -28 l71 0 -7 78 c-14 159 -69 377 -138 552 -208 525 -631 984 -1128
1224 -281 135 -597 216 -845 216 -125 0 -115 -72 -105 770 5 393 9 826 10 962
l0 247 42 12 c68 18 225 7 593 -41 812 -106 1799 -649 2429 -1335 670 -730
1038 -1596 1106 -2600 63 -941 -187 -1897 -698 -2675 -365 -554 -924 -1080
-1488 -1399 -398 -224 -876 -393 -1332 -470 -98 -16 -107 -20 -108 -40 -2 -38
-20 -46 -39 -17 -15 22 -25 26 -65 26 -26 0 -82 -9 -126 -20 -87 -23 -143 -20
-191 10 -30 18 -30 19 -37 136 -3 66 -2 152 3 194 6 41 11 78 11 82 0 9 143
55 225 72 39 8 131 19 205 25 259 21 443 64 703 167 957 377 1799 1188 2185
2104 274 652 361 1464 232 2177 -184 1016 -786 1955 -1600 2498 -354 236 -833
417 -1433 540 -93 19 -175 35 -183 35 -12 0 -14 -15 -12 -82 l3 -81 120 -22
c779 -143 1563 -595 2106 -1213 210 -239 343 -432 458 -660 85 -170 118 -253
215 -543 144 -427 190 -641 202 -925 l7 -149 -35 -17 c-72 -34 -148 -41 -296
-29 -76 6 -145 11 -153 11 -9 0 -29 19 -46 43 -27 38 -31 55 -42 167 -64 644
-314 1272 -688 1732 -257 316 -627 603 -1014 787 -229 109 -450 179 -698 222
-114 20 -134 21 -142 8 -14 -22 -11 -129 4 -134 6 -2 64 -18 127 -35 811 -224
1595 -852 1975 -1582 135 -260 209 -503 262 -853 25 -171 25 -652 0 -810 -102
-633 -365 -1152 -812 -1600 -329 -330 -716 -580 -1090 -704 -171 -56 -334 -94
-480 -111 -136 -16 -139 -18 -153 -81 -7 -30 -15 -65 -19 -78 l-6 -24 111 7
c213 12 476 70 698 151 150 55 424 194 559 283 474 313 835 719 1075 1207 190
387 281 712 297 1069 l6 139 46 20 c43 20 61 21 255 19 l209 -2 23 -34 c23
-33 23 -37 13 -152 -53 -648 -288 -1284 -665 -1800 -131 -180 -195 -255 -354
-418 -309 -316 -674 -579 -1060 -765 -461 -221 -1022 -341 -1594 -341 -239 0
-388 12 -592 45 -521 87 -887 238 -1279 530 -673 500 -1184 1177 -1429 1894
-82 240 -154 565 -171 776 -3 44 -9 92 -11 107 l-6 28 -100 0 -101 0 7 -132
c44 -870 468 -1760 1150 -2415 635 -610 1392 -949 2289 -1022 70 -6 159 -11
197 -11 67 0 70 -1 84 -29 32 -61 38 -119 21 -203 -9 -43 -15 -108 -14 -144 2
-55 -1 -68 -19 -86 -20 -21 -23 -21 -213 -9 -835 51 -1582 333 -2258 854 -590
455 -1049 1026 -1355 1684 -188 404 -282 747 -343 1243 -22 182 -25 747 -5
940 55 532 182 1026 367 1428 140 305 340 616 593 922 118 142 424 448 554
554 562 458 1197 756 1893 890 111 21 222 37 422 61 l41 4 11 -51 c40 -185 35
-325 -13 -398 l-24 -36 -123 -12 c-1288 -122 -2553 -1102 -3014 -2336 -20 -54
-43 -134 -50 -177 -17 -95 -22 -115 -95 -364 -33 -110 -67 -234 -75 -275 -21
-98 -36 -274 -29 -322 l7 -38 88 0 88 0 5 43 c3 23 10 89 16 147 6 58 25 172
41 255 217 1086 942 2046 1915 2533 134 67 349 154 499 202 238 75 705 170
732 149 6 -6 22 -30 33 -55 25 -51 31 -181 16 -351 l-9 -103 -51 -25 c-63 -31
-150 -50 -282 -64 -105 -11 -320 -78 -505 -157 -802 -342 -1493 -1108 -1723
-1911 -36 -125 -77 -346 -98 -528 -19 -164 -16 -609 5 -765 53 -385 157 -730
311 -1035 314 -615 886 -1161 1477 -1409 267 -111 656 -211 943 -241 82 -9 86
-5 86 82 0 70 6 65 -115 78 -107 12 -310 54 -447 94 -865 254 -1570 880 -1892
1683 -144 358 -216 676 -216 949 l0 67 42 25 c36 21 47 23 82 15 23 -5 83 -7
133 -3 111 8 219 -8 265 -39 32 -21 33 -24 45 -129 64 -583 322 -1123 710
-1487 104 -98 275 -228 393 -300 469 -285 1091 -369 1731 -234 402 85 770 299
1104 645 168 173 329 396 424 586 83 167 155 392 186 583 24 149 27 140 -55
140 -48 0 -72 -4 -74 -12 -2 -7 -11 -53 -20 -103 -113 -592 -612 -1236 -1186
-1529 -153 -78 -227 -101 -503 -155 l-248 -48 -20 38 c-24 47 -25 124 -3 257
9 53 13 114 11 134 l-5 37 62 24 c33 14 122 43 196 67 156 48 310 110 438 174
286 144 576 509 702 883 53 158 70 263 77 448 9 298 -32 499 -158 763 -166
350 -416 621 -706 766 -97 48 -263 102 -288 92 -19 -7 -20 -75 -1 -120 17 -41
102 -106 171 -131 95 -34 160 -74 275 -168 118 -96 219 -203 287 -305 120
-181 203 -425 228 -668 l6 -62 -53 -13 c-30 -8 -106 -14 -178 -14 -110 0 -131
3 -177 24 -40 17 -53 29 -53 45 -1 43 -30 157 -60 233 -60 149 -175 304 -289
387 -61 45 -168 99 -181 91 -5 -3 -10 -26 -10 -50 0 -56 31 -94 115 -138 48
-26 69 -46 108 -102 137 -198 219 -448 203 -623 -9 -95 -46 -210 -92 -289 -58
-97 -185 -263 -250 -327 -52 -50 -147 -108 -216 -130 -15 -4 -18 -17 -18 -72
l0 -66 28 7 c105 26 265 121 370 220 129 121 208 253 252 419 20 75 44 132 72
169 10 14 35 18 123 24 173 10 222 7 274 -19 46 -23 46 -23 43 -68 -9 -121
-62 -292 -138 -440 -142 -277 -410 -553 -665 -685 -302 -156 -718 -205 -1013
-120 -214 62 -489 247 -722 486 -207 213 -294 380 -360 687 -4 21 -9 22 -86
22 l-81 0 7 -76 c26 -289 171 -553 455 -827 211 -203 386 -314 611 -385 83
-26 343 -88 452 -107 20 -4 39 -14 43 -22 17 -46 25 -172 19 -301 l-7 -142
-50 -15 c-72 -21 -119 -19 -301 16 -199 38 -334 82 -496 160 -305 147 -584
381 -809 679 -317 420 -443 787 -444 1290 0 331 59 597 197 885 114 237 242
421 421 601 125 126 224 207 375 307 131 86 163 103 358 181 132 53 234 85
359 111 18 4 25 -3 44 -52 25 -66 30 -171 16 -354 l-9 -105 -76 -18 c-306 -70
-632 -299 -864 -606 -141 -187 -271 -482 -285 -647 l-6 -63 76 0 c84 0 80 -4
93 80 11 76 53 190 111 302 173 336 530 651 870 769 l51 17 15 -31 c29 -63 32
-85 32 -253 l0 -171 -80 -41 c-246 -126 -458 -395 -535 -677 -28 -99 -39 -333
-21 -428 27 -143 82 -269 172 -397 169 -240 490 -442 622 -391 56 22 22 90
-66 132 -34 16 -70 29 -80 29 -29 0 -75 28 -161 97 -133 107 -205 200 -267
343 -45 104 -65 185 -79 312 -23 208 28 374 170 551 119 150 257 259 379 303
l81 29 0 732 0 733 -32 0 c-55 0 -221 -28 -326 -55 -153 -38 -262 -79 -437
-164 -438 -213 -804 -555 -1018 -951 -122 -226 -250 -654 -264 -882 l-6 -107
-38 -15 c-72 -29 -168 -38 -332 -30 l-158 7 -16 31 c-31 59 -28 155 12 386 55
317 105 472 241 740 165 326 352 578 625 846 448 438 932 680 1499 749 69 9
150 19 180 23 l55 7 12 95 c24 193 26 469 8 815 -11 204 -15 388 -12 483 l6
152 -72 -2 c-40 -1 -90 -3 -112 -5z"/>
</g>
</svg>
